<?xml version="1.0" standalone="no"?>
<svg xmlns="http://www.w3.org/2000/svg" viewBox="0 0 146.309 36" width="146.309" height="36"><g fill="#305699" color="#305699" transform="translate(118.309, 4) scale(0.6363637)"><svg width="44.0" height="44.0" x="0.0" y="0.0" viewBox="0 0 44 44"><path fill="currentColor" fill-rule="nonzero" d="M23.77 32.44V14.72h19.49v28.35H.74V32.44h23.03zM.74.55h42.52v10.63H20.23V28.9H.74V.55z"></path></svg></g><path fill="#0b005d" fill-rule="nonzero" d="M4.38 12.50L3.28 15.97Q2.27 15.88 0.93 15.88L0.93 15.88L0 15.88L5.10 1.59Q5.44 0.63 5.44 0.47Q5.44 0.32 5.43 0.28L5.43 0.28L5.44 0.26Q6.20 0.29 7.05 0.29L7.05 0.29Q7.76 0.29 8.74 0.27L8.74 0.27L8.75 0.29Q8.73 0.34 8.73 0.42L8.73 0.42Q8.73 0.64 9.08 1.61L9.08 1.61L14.29 15.91Q14.05 15.90 13.73 15.90L13.73 15.90Q13.73 15.90 13.13 15.88L13.13 15.88Q12.83 15.88 12.60 15.88L12.60 15.88L10.78 15.88L9.68 12.50L4.38 12.50ZM5.27 9.69L8.77 9.69L7.00 4.24L5.27 9.69ZM19.57 15.88L18.46 15.88Q16.73 15.88 16.17 15.95L16.17 15.95L16.17 0.22Q16.45 0.29 17.34 0.29Q18.22 0.29 19.39 0.25L19.39 0.25L19.39 13.07L21.82 13.07Q22.88 13.07 23.51 13.00L23.51 13.00Q23.43 15.74 23.43 15.84L23.43 15.84L23.43 15.96Q22.28 15.88 19.57 15.88L19.57 15.88ZM28.43 12.50L27.33 15.97Q26.32 15.88 24.97 15.88L24.97 15.88L24.05 15.88L29.14 1.59Q29.48 0.63 29.48 0.47Q29.48 0.32 29.47 0.28L29.47 0.28L29.48 0.26Q30.25 0.29 31.10 0.29L31.10 0.29Q31.80 0.29 32.79 0.27L32.79 0.27L32.80 0.29Q32.78 0.34 32.78 0.42L32.78 0.42Q32.78 0.64 33.13 1.61L33.13 1.61L38.33 15.91Q38.10 15.90 37.78 15.90L37.78 15.90Q37.78 15.90 37.17 15.88L37.17 15.88Q36.88 15.88 36.64 15.88L36.64 15.88L34.83 15.88L33.73 12.50L28.43 12.50ZM29.32 9.69L32.81 9.69L31.04 4.24L29.32 9.69ZM43.62 15.88L42.50 15.88Q40.78 15.88 40.22 15.95L40.22 15.95L40.22 0.22Q40.50 0.29 41.38 0.29Q42.27 0.29 43.44 0.25L43.44 0.25L43.44 13.07L45.87 13.07Q46.92 13.07 47.55 13.00L47.55 13.00Q47.47 15.74 47.47 15.84L47.47 15.84L47.47 15.96Q46.32 15.88 43.62 15.88L43.62 15.88ZM50.60 15.88L50.60 0.25Q51.77 0.29 52.02 0.29L52.02 0.29L52.86 0.29Q53.48 0.29 53.86 0.20L53.86 0.20L53.85 15.88L50.60 15.88ZM64.59 10.02L59.78 10.02Q58.89 10.02 58.32 10.08L58.32 10.08L58.36 7.18Q58.63 7.25 59.91 7.25L59.91 7.25L64.46 7.25Q65.75 7.25 66.01 7.18L66.01 7.18L66.05 10.08Q65.48 10.02 64.59 10.02L64.59 10.02ZM80.01 14.74Q79.15 15.42 77.78 15.80Q76.41 16.17 74.41 16.17Q72.41 16.17 70.16 15.81L70.16 15.81L70.16 0.36Q72.43 0 74.10 0Q75.77 0 76.85 0.32Q77.92 0.63 78.60 1.17L78.60 1.17Q79.93 2.21 79.93 3.87Q79.93 5.53 78.73 6.62L78.73 6.62Q80.16 7.07 80.94 8.31L80.94 8.31Q81.66 9.42 81.66 10.78Q81.66 12.13 81.26 13.09Q80.87 14.05 80.01 14.74ZM73.27 2.53L73.27 6.19Q73.76 6.27 74.50 6.27Q75.23 6.27 75.71 6.08Q76.18 5.88 76.44 5.59L76.44 5.59Q76.86 5.11 76.86 4.25L76.86 4.25Q76.86 2.46 74.75 2.46L74.75 2.46Q73.86 2.46 73.27 2.53L73.27 2.53ZM75 8.70L75 8.70Q74.02 8.70 73.27 8.82L73.27 8.82L73.27 13.43Q74.09 13.64 74.99 13.64Q75.89 13.64 76.58 13.42Q77.26 13.21 77.73 12.83L77.73 12.83Q78.68 12.06 78.68 10.86L78.68 10.86Q78.68 8.70 75 8.70ZM86.43 12.50L85.32 15.97Q84.32 15.88 82.97 15.88L82.97 15.88L82.04 15.88L87.14 1.59Q87.48 0.63 87.48 0.47Q87.48 0.32 87.47 0.28L87.47 0.28L87.48 0.26Q88.24 0.29 89.10 0.29L89.10 0.29Q89.80 0.29 90.79 0.27L90.79 0.27L90.80 0.29Q90.77 0.34 90.77 0.42L90.77 0.42Q90.77 0.64 91.13 1.61L91.13 1.61L96.33 15.91Q96.09 15.90 95.78 15.90L95.78 15.90Q95.78 15.90 95.17 15.88L95.17 15.88Q94.88 15.88 94.64 15.88L94.64 15.88L92.82 15.88L91.72 12.50L86.43 12.50ZM87.32 9.69L90.81 9.69L89.04 4.24L87.32 9.69ZM107.10 9.73L107.10 0.23Q107.82 0.29 108.30 0.29L108.30 0.29L109.28 0.29Q109.77 0.29 110.31 0.20L110.31 0.20L110.31 9.89Q110.31 12.77 108.56 14.52L108.56 14.52Q106.91 16.17 104.41 16.17L104.41 16.17Q101.68 16.17 100.00 14.75L100.00 14.75Q98.11 13.16 98.11 10.16L98.11 10.16L98.11 0.23Q99.08 0.29 99.94 0.29Q100.80 0.29 101.37 0.20L101.37 0.20L101.37 10.31Q101.37 11.79 102.27 12.61L102.27 12.61Q103.11 13.36 104.38 13.36L104.38 13.36Q106.25 13.36 106.88 11.44L106.88 11.44Q107.10 10.75 107.10 9.73L107.10 9.73Z" transform="translate(0, 9.915)"></path></svg>